<svg xmlns="http://www.w3.org/2000/svg" xmlns:xlink="http://www.w3.org/1999/xlink" preserveAspectRatio="xMidYMid" width="51" height="50" viewBox="0 0 51 50">
  <defs>
    <style>

      .cls-2 {
        fill: #1abc9c;
      }
    </style>
  </defs>
  <path d="M25.096,50.191 C11.255,50.191 -0.006,38.930 -0.006,25.090 C-0.006,11.249 11.255,-0.012 25.096,-0.012 C38.937,-0.012 50.198,11.249 50.198,25.090 C50.198,38.930 38.937,50.191 25.096,50.191 ZM25.096,1.662 C12.178,1.662 1.668,12.172 1.668,25.090 C1.668,38.008 12.178,48.517 25.096,48.517 C38.014,48.517 48.524,38.008 48.524,25.090 C48.524,12.172 38.014,1.662 25.096,1.662 ZM31.120,32.715 C30.511,33.313 30.107,33.730 30.107,33.730 C30.107,33.730 30.375,36.595 30.134,36.897 C29.479,37.724 26.173,41.657 26.173,41.657 C26.173,41.657 25.057,42.610 24.963,40.793 C24.963,40.793 24.319,37.232 24.319,37.232 C24.319,37.232 24.135,36.745 23.594,36.998 C23.053,37.251 21.840,37.275 21.647,37.519 C21.453,37.764 20.806,38.388 19.978,37.713 C19.838,37.598 19.737,37.516 19.661,37.455 C19.675,37.465 19.661,37.452 19.573,37.384 C19.486,37.314 19.470,37.302 19.484,37.314 C19.407,37.254 19.304,37.175 19.161,37.064 C18.314,36.412 18.774,35.640 18.967,35.396 C19.161,35.152 18.908,33.965 19.031,33.381 C19.153,32.796 18.638,32.729 18.638,32.729 C18.638,32.729 15.024,32.914 15.024,32.914 C13.234,33.237 13.907,31.933 13.907,31.933 C13.907,31.933 16.981,27.816 17.636,26.990 C17.876,26.687 20.726,26.294 20.726,26.294 C20.726,26.294 21.039,25.805 21.484,25.075 C22.994,22.597 23.980,21.623 25.633,19.953 C28.564,16.991 34.853,14.632 37.158,14.388 C37.491,14.353 37.644,14.425 37.717,14.495 C37.802,14.549 37.906,14.682 37.948,15.015 C38.238,17.315 37.376,23.977 35.161,27.506 C33.912,29.496 33.189,30.678 31.120,32.715 ZM31.229,22.680 C29.945,21.661 28.076,21.877 27.058,23.162 C26.039,24.448 26.255,26.315 27.540,27.334 C28.825,28.352 30.693,28.136 31.712,26.851 C32.730,25.566 32.514,23.698 31.229,22.680 ZM19.661,37.455 C19.647,37.445 19.602,37.411 19.571,37.388 C19.539,37.362 19.497,37.327 19.484,37.314 C19.519,37.341 19.549,37.365 19.573,37.384 C19.597,37.403 19.627,37.427 19.661,37.455 ZM19.536,37.362 C19.536,37.362 19.551,37.374 19.571,37.388 C19.588,37.403 19.602,37.414 19.602,37.414 C19.602,37.414 19.536,37.362 19.536,37.362 ZM21.254,14.036 C20.374,14.036 19.661,13.323 19.661,12.444 C19.661,11.564 20.374,10.852 21.254,10.852 C22.133,10.852 22.846,11.564 22.846,12.444 C22.846,13.323 22.133,14.036 21.254,14.036 ZM16.671,19.115 C16.219,19.115 15.852,18.749 15.852,18.297 C15.852,17.845 16.219,17.478 16.671,17.478 C17.123,17.478 17.489,17.845 17.489,18.297 C17.489,18.749 17.123,19.115 16.671,19.115 Z" id="path-1" class="cls-2" fill-rule="evenodd"/>
</svg>
