<?xml version="1.0" encoding="UTF-8"?>
<!DOCTYPE svg PUBLIC "-//W3C//DTD SVG 1.1//EN" "http://www.w3.org/Graphics/SVG/1.1/DTD/svg11.dtd">
<!-- Creator: CorelDRAW X7 -->
<svg xmlns="http://www.w3.org/2000/svg" xml:space="preserve" width="82.3555mm" height="144.856mm" version="1.1" style="shape-rendering:geometricPrecision; text-rendering:geometricPrecision; image-rendering:optimizeQuality; fill-rule:evenodd; clip-rule:evenodd"
viewBox="0 0 8249 14510"
 xmlns:xlink="http://www.w3.org/1999/xlink">
 <defs>
  <style type="text/css">
   <![CDATA[
    .fil1 {fill:#1D1D1F}
    .fil0 {fill:white}
    .fil2 {fill:white}
   ]]>
  </style>
 </defs>
 <g id="Layer_x0020_1">
  <metadata id="CorelCorpID_0Corel-Layer"/>
  <path class="fil0" d="M3479 2759c-66,-314 333,-600 654,-597 410,5 689,416 629,590 -121,53 -1101,43 -1283,7zm-505 3339l-2 666 1071 6c1,-259 2,-516 2,-774 0,-131 -58,-693 69,-701 119,-7 84,186 83,294l-2 1171 1070 10c10,-1240 1,-2484 1,-3725 0,-1092 -188,-1346 -625,-2157 -260,-481 -487,-1116 -813,-443 -327,673 -725,1144 -825,1966 -63,513 -29,2979 -29,3687z"/>
  <path class="fil1" d="M3272 11883c163,16 71,364 254,558 81,-5 76,-18 102,-37 5,-4 11,-12 15,-15 3,-3 8,-11 13,-16 25,315 65,598 95,902 24,234 -126,613 -179,840 -158,-196 -435,-1973 -300,-2232zm560 0c121,10 45,-26 131,268 31,107 45,237 149,293 170,-53 165,-408 218,-501 38,-65 -9,-27 61,-62 66,107 38,484 32,603 -26,516 -147,1154 -290,1629 -162,-226 -430,-1957 -301,-2230zm838 2228c-325,-1030 -126,-797 -87,-1749 51,90 41,72 155,83l140 -467c30,-112 -4,-106 111,-93 -9,412 -5,765 -64,1183 -31,225 -154,901 -255,1043zm-894 -2954l692 -1 0 571 -693 1 1 -571zm845 -2c482,2 385,-57 440,249 20,112 47,211 55,325l-498 -1 2 -215 343 -1 2 -131 -345 -18 1 -208zm-1345 338c94,35 229,20 344,29l2 201 -505 5 105 -570 401 3 -2 200c-187,16 -358,-61 -345,132zm-299 -4571l446 -1c26,153 14,961 11,1213 -1,42 -6,163 5,195 16,47 70,99 126,45 79,-174 8,-1155 28,-1451l1053 -5c23,242 9,559 8,808 -1,500 -71,660 128,668 68,-192 1,-1157 28,-1473l454 12 3 4056c-139,39 -2049,31 -2295,12l5 -4079zm2985 1380c22,8 254,333 303,398 227,298 208,227 206,502 -3,462 20,959 -3,1419l-507 -14 1 -2305zm-4195 900c-1,-325 54,-293 203,-513 173,-254 150,-197 312,-392l-9 2323 -503 0 -3 -1418zm4858 15c73,57 189,246 225,326 134,300 306,1073 -226,1077l1 -1403zm-5014 1402c-372,10 -379,-323 -335,-671 45,-353 173,-511 300,-735 37,39 49,33 53,166l-9 535c-12,235 3,471 -9,705zm4174 -2583c43,98 19,2371 17,2582l-382 -5 -3 -265 332 -20 0 -131 -331 -13 -3 -316c212,-28 334,67 336,-155l-332 -14 8 -324c317,-32 316,71 327,-150l-334 -15 5 -319 326 -24c-6,-212 -126,-121 -332,-141l6 -320 328 -25 2 -127 -335 -16 -2 -716c52,61 131,188 184,265 35,49 164,205 183,249zm-3360 861c25,-792 -99,-699 201,-1104l195 -252 -3 703c-109,2 -245,-11 -320,30 -37,181 145,125 322,127l4 346c-132,-10 -222,-44 -323,16 -50,165 180,122 318,121l10 335c-104,2 -351,-47 -338,81 12,113 232,64 337,64l-5 356c-61,-4 -275,-31 -317,17 -75,152 183,116 316,123l-1 333c-173,-5 -350,-59 -328,121 80,41 217,31 329,25l-5 282 -378 -1 -14 -1723zm549 -2799c0,-708 -34,-3174 29,-3687 100,-822 498,-1293 825,-1966 326,-673 553,-38 813,443 437,811 625,1065 625,2157 0,1241 9,2485 -1,3725l-1070 -10 2 -1171c1,-108 36,-301 -83,-294 -127,8 -69,570 -69,701 0,258 -1,515 -2,774l-1071 -6 2 -666zm-155 4674l6 371 239 19 -122 674c83,60 72,26 155,63 27,884 20,1171 240,2021 41,160 93,481 240,524 124,-89 221,-528 258,-716l184 578c39,122 26,129 154,139 95,-189 166,-471 226,-708 72,185 120,624 272,706 138,-57 184,-362 228,-511 59,-195 107,-418 142,-620 85,-493 103,-899 98,-1413l151 -36 -115 -705c320,-1 249,-42 242,-376 155,-24 322,-4 476,-5 159,-1 321,-5 483,-5 365,0 587,43 701,-257 89,-233 60,-588 -14,-830 -109,-361 -333,-607 -541,-908 -220,-319 -890,-1157 -997,-1420 -109,-271 -107,-535 -107,-852 0,-644 0,-1289 0,-1934 0,-1301 175,-2330 -459,-3415 -122,-210 -220,-418 -339,-629 -111,-196 -234,-507 -483,-526 -246,-18 -348,159 -415,313l-260 479c-320,628 -561,951 -632,1789 -46,534 -9,3098 -9,3847 0,331 14,578 -92,883 -54,156 -94,195 -172,311 -200,298 -369,476 -600,849 -109,175 -279,396 -403,563 -139,186 -277,328 -366,604 -73,228 -129,601 -35,843 115,298 300,290 669,290 334,0 664,-2 997,0z"/>
  <path class="fil0" d="M2972 11001c246,19 2156,27 2295,-12l-3 -4056 -454 -12c-27,316 40,1281 -28,1473 -199,-8 -129,-168 -128,-668 1,-249 15,-566 -8,-808l-1053 5c-20,296 51,1277 -28,1451 -56,54 -110,2 -126,-45 -11,-32 -6,-153 -5,-195 3,-252 15,-1060 -11,-1213l-446 1 -5 4079z"/>
  <path class="fil0" d="M1767 9202l3 1418 503 0 9 -2323c-162,195 -139,138 -312,392 -149,220 -204,188 -203,513z"/>
  <path class="fil0" d="M5961 10607l507 14c23,-460 0,-957 3,-1419 2,-275 21,-204 -206,-502 -49,-65 -281,-390 -303,-398l-1 2305z"/>
  <path class="fil0" d="M2439 10620l378 1 5 -282c-112,6 -249,16 -329,-25 -22,-180 155,-126 328,-121l1 -333c-133,-7 -391,29 -316,-123 42,-48 256,-21 317,-17l5 -356c-105,0 -325,49 -337,-64 -13,-128 234,-79 338,-81l-10 -335c-138,1 -368,44 -318,-121 101,-60 191,-26 323,-16l-4 -346c-177,-2 -359,54 -322,-127 75,-41 211,-28 320,-30l3 -703 -195 252c-300,405 -176,312 -201,1104l14 1723z"/>
  <path class="fil0" d="M5420 8238l335 16 -2 127 -328 25 -6 320c206,20 326,-71 332,141l-326 24 -5 319 334 15c-11,221 -10,118 -327,150l-8 324 332 14c-2,222 -124,127 -336,155l3 316 331 13 0 131 -332 20 3 265 382 5c2,-211 26,-2484 -17,-2582 -19,-44 -148,-200 -183,-249 -53,-77 -132,-204 -184,-265l2 716z"/>
  <path class="fil0" d="M3832 11883c-129,273 139,2004 301,2230 143,-475 264,-1113 290,-1629 6,-119 34,-496 -32,-603 -70,35 -23,-3 -61,62 -53,93 -48,448 -218,501 -104,-56 -118,-186 -149,-293 -86,-294 -10,-258 -131,-268z"/>
  <path class="fil0" d="M3272 11883c-135,259 142,2036 300,2232 53,-227 203,-606 179,-840 -30,-304 -70,-587 -95,-902 -5,5 -10,13 -13,16 -4,3 -10,11 -15,15 -26,19 -21,32 -102,37 -183,-194 -91,-542 -254,-558z"/>
  <path class="fil0" d="M4670 14111c101,-142 224,-818 255,-1043 59,-418 55,-771 64,-1183 -115,-13 -81,-19 -111,93l-140 467c-114,-11 -104,7 -155,-83 -39,952 -238,719 87,1749z"/>
  <path class="fil1" d="M3657 2613c77,-146 229,-302 480,-296 273,8 357,157 446,303l-926 -7zm-178 146c182,36 1162,46 1283,-7 60,-174 -219,-585 -629,-590 -321,-3 -720,283 -654,597z"/>
  <polygon class="fil0" points="3775,11728 4468,11727 4468,11156 3776,11157 "/>
  <path class="fil0" d="M1611 10619c12,-234 -3,-470 9,-705l9 -535c-4,-133 -16,-127 -53,-166 -127,224 -255,382 -300,735 -44,348 -37,681 335,671z"/>
  <path class="fil0" d="M6624 10620c532,-4 360,-777 226,-1077 -36,-80 -152,-269 -225,-326l-1 1403z"/>
  <path class="fil0" d="M5116 11729c-8,-114 -35,-213 -55,-325 -55,-306 42,-247 -440,-249l-1 208 345 18 -2 131 -343 1 -2 215 498 1z"/>
  <path class="fil0" d="M3276 11493c-13,-193 158,-116 345,-132l2 -200 -401 -3 -105 570 505 -5 -2 -201c-115,-9 -250,6 -344,-29z"/>
  <path class="fil0" d="M3657 2613l926 7c-89,-146 -173,-295 -446,-303 -251,-6 -403,150 -480,296z"/>
  <g id="_2646039794176">
   <path class="fil2" d="M1265 8734c-78,-109 -104,-302 -186,-450 -63,-112 -195,-300 -403,-220 -577,221 -676,2726 -676,3289 0,176 70,137 245,132 25,274 -1,577 19,863 31,427 255,2032 517,2162 127,-54 223,-484 261,-633 247,-970 243,-1376 267,-2391l228 -7c58,-189 4,-601 2,-813 -51,-900 -256,-1855 -274,-1932z"/>
   <path class="fil1" d="M781 14173c-272,-560 -419,-2002 -373,-2682l117 -6 145 537c172,499 342,-467 355,-526l120 -3c47,441 -6,1006 -63,1433 -34,259 -185,1064 -301,1247zm-630 -2839c8,-571 25,-1258 116,-1788 37,-211 213,-1357 511,-1337 78,5 176,162 225,252 63,116 193,599 215,732 22,131 34,257 64,392 95,433 123,1272 119,1750l-1250 -1zm1114 -2600c-78,-109 -104,-302 -186,-450 -63,-112 -195,-300 -403,-220 -577,221 -676,2726 -676,3289 0,176 70,137 245,132 25,274 -1,577 19,863 31,427 255,2032 517,2162 127,-54 223,-484 261,-633 247,-970 243,-1376 267,-2391l228 -7c58,-189 4,-601 2,-813 -51,-900 -256,-1855 -274,-1932z"/>
  </g>
  <g id="_2645946228192">
   <path class="fil2" d="M6985 8734c77,-109 104,-302 186,-450 62,-112 195,-300 403,-220 577,221 675,2726 675,3289 0,176 -70,137 -245,132 -25,274 1,577 -19,863 -31,427 -254,2032 -517,2162 -127,-54 -223,-484 -261,-633 -247,-970 -243,-1376 -267,-2391l-227 -7c-59,-189 -5,-601 -3,-813 51,-900 257,-1855 275,-1932z"/>
   <path class="fil1" d="M7468 14173c272,-560 419,-2002 373,-2682l-116 -6 -146 537c-171,499 -342,-467 -355,-526l-120 -3c-46,441 6,1006 63,1433 35,259 185,1064 301,1247zm630 -2839c-7,-571 -24,-1258 -116,-1788 -36,-211 -212,-1357 -511,-1337 -78,5 -175,162 -224,252 -64,116 -194,599 -216,732 -22,131 -34,257 -63,392 -96,433 -124,1272 -120,1750l1250 -1zm-1113 -2600c77,-109 104,-302 186,-450 62,-112 195,-300 403,-220 577,221 675,2726 675,3289 0,176 -70,137 -245,132 -25,274 1,577 -19,863 -31,427 -254,2032 -517,2162 -127,-54 -223,-484 -261,-633 -247,-970 -243,-1376 -267,-2391l-227 -7c-59,-189 -5,-601 -3,-813 51,-900 257,-1855 275,-1932z"/>
  </g>
  <ellipse class="fil1" cx="4119" cy="9919" rx="105" ry="1491"/>
 </g>
</svg>
