<?xml version="1.0" encoding="utf-8"?>
<!-- Generator: Adobe Illustrator 16.0.0, SVG Export Plug-In . SVG Version: 6.00 Build 0)  -->
<!DOCTYPE svg PUBLIC "-//W3C//DTD SVG 1.1//EN" "http://www.w3.org/Graphics/SVG/1.1/DTD/svg11.dtd">
<svg version="1.1" id="Layer_1" xmlns="http://www.w3.org/2000/svg" xmlns:xlink="http://www.w3.org/1999/xlink" x="0px" y="0px"
	 width="599.802px" height="447.507px" viewBox="0 0 599.802 447.507" enable-background="new 0 0 599.802 447.507"
	 xml:space="preserve">
<g>
	<path fill="#383838" d="M595.438,3.168c-2.49-0.187-4.985-0.359-7.464-0.654c-36.493-4.337-72.811-3.056-108.891,3.788
		c-44.548,8.45-85.332,25.483-121.51,53.241c-47.751,36.638-93.177,76.026-138.126,115.985c-3.44,3.059-6.623,4.173-11.209,3.335
		c-21.466-3.919-43.114-6.81-62.701-11.156c-5.377-0.864-9.02-1.332-12.609-2.056c-4.293-0.867-7.796,0.301-10.972,3.268
		c-17.041,15.921-34.159,31.759-51.208,47.672c-4.766,4.448-4.39,6.371,1.658,8.721c19.552,7.598,39.124,15.146,58.694,22.697
		c6.901,2.663,7.762,4.109,6.732,11.442c-0.291,2.068-1.467,3.694-2.545,5.367c-4.331,6.722-8.603,13.481-13.063,20.116
		c-2.199,3.271-3.005,6.685-1.916,10.42c0.977,3.348,1.945,6.743,3.397,9.898c7.868,17.093,19.004,32.044,30.979,46.398
		c4.805,5.76,10.054,11.106,16.181,15.541c4.48,3.244,9.066,4.264,14.551,2.586c7.797-2.386,15.729-4.38,23.686-6.179
		c7.739-1.749,12.378,1.957,12.758,9.565c1.057,21.118,2.116,42.236,3.277,63.349c0.376,6.85,1.981,7.73,7.951,4.468
		c20.465-11.188,40.868-22.486,61.343-33.655c3.869-2.109,5.665-5.107,6.27-9.479c3.566-25.74,8.527-51.279,11.269-77.14
		c0.378-3.562,1.669-6.071,4.959-7.993c50.347-29.402,100.439-59.194,148.969-91.597c31.505-21.037,57.974-46.807,79.136-78.083
		c27.554-40.719,44.766-85.697,54.521-133.704C600.304,5.651,599.463,3.472,595.438,3.168z M416.482,172.327
		c-21.234-3.412-36.106-23.978-32.695-45.212c3.412-21.234,23.979-36.106,45.213-32.694c21.234,3.412,36.106,23.978,32.694,45.211
		C458.283,160.867,437.717,175.739,416.482,172.327z"/>
	<path fill-rule="evenodd" clip-rule="evenodd" fill="#383838" d="M595.438,3.168c-2.49-0.187-4.985-0.359-7.464-0.654
		c-36.493-4.337-72.811-3.056-108.891,3.788c-44.548,8.45-85.332,25.483-121.51,53.241
		c-47.751,36.638-93.177,76.026-138.126,115.985c-3.44,3.059-6.623,4.173-11.209,3.335c-21.466-3.919-43.114-6.81-62.701-11.156
		c-5.377-0.864-9.02-1.332-12.609-2.056c-4.293-0.867-7.796,0.301-10.972,3.268c-17.041,15.921-34.159,31.759-51.208,47.672
		c-4.766,4.448-4.39,6.371,1.658,8.721c19.552,7.598,39.124,15.146,58.694,22.697c6.901,2.663,7.762,4.109,6.732,11.442
		c-0.291,2.068-1.467,3.694-2.545,5.367c-4.331,6.722-8.603,13.481-13.063,20.116c-2.199,3.271-3.005,6.685-1.916,10.42
		c0.977,3.348,1.945,6.743,3.397,9.898c7.868,17.093,19.004,32.044,30.979,46.398c4.805,5.76,10.054,11.106,16.181,15.541
		c4.48,3.244,9.066,4.264,14.551,2.586c7.797-2.386,15.729-4.38,23.686-6.179c7.739-1.749,12.378,1.957,12.758,9.565
		c1.057,21.118,2.116,42.236,3.277,63.349c0.376,6.85,1.981,7.73,7.951,4.468c20.465-11.188,40.868-22.486,61.343-33.655
		c3.869-2.109,5.665-5.107,6.27-9.479c3.566-25.74,8.527-51.279,11.269-77.14c0.378-3.562,1.669-6.071,4.959-7.993
		c50.347-29.402,100.439-59.194,148.969-91.597c31.505-21.037,57.974-46.807,79.136-78.083
		c27.554-40.719,44.766-85.697,54.521-133.704C600.304,5.651,599.463,3.472,595.438,3.168z M416.482,172.327
		c-21.234-3.412-36.106-23.978-32.695-45.212c0.519-3.226,1.438-6.301,2.69-9.191c6.37-17.446,23.861-27.977,43.281-24.939
		c21.704,3.395,36.155,23.244,32.731,44.958c-1.243,7.885-4.521,14.768-9.212,20.22
		C444.608,168.692,430.699,174.611,416.482,172.327z"/>
	<path fill-rule="evenodd" clip-rule="evenodd" fill="#383838" d="M429,94.421c21.234,3.412,36.106,23.978,32.694,45.211
		c-1.127,7.018-4.137,13.333-8.416,18.53c4.691-5.452,7.969-12.335,9.212-20.22c3.424-21.714-11.027-41.563-32.731-44.958
		c-19.42-3.038-36.911,7.493-43.281,24.939C393.468,101.788,410.99,91.527,429,94.421z"/>
</g>
<circle fill-rule="evenodd" clip-rule="evenodd" fill="#8C8C8C" cx="102.702" cy="321.894" r="16.5"/>
<circle fill-rule="evenodd" clip-rule="evenodd" fill="#8C8C8C" cx="129.434" cy="351.003" r="8"/>
<circle fill-rule="evenodd" clip-rule="evenodd" fill="#8C8C8C" cx="154.93" cy="381.433" r="12"/>
<circle fill-rule="evenodd" clip-rule="evenodd" fill="#8C8C8C" cx="102.018" cy="357.739" r="3"/>
<circle fill-rule="evenodd" clip-rule="evenodd" fill="#8C8C8C" cx="125.248" cy="380.209" r="8.5"/>
<circle fill-rule="evenodd" clip-rule="evenodd" fill="#8C8C8C" cx="73.959" cy="352.725" r="10.5"/>
<circle fill-rule="evenodd" clip-rule="evenodd" fill="#8C8C8C" cx="96.85" cy="394.636" r="18.75"/>
<circle fill-rule="evenodd" clip-rule="evenodd" fill="#8C8C8C" cx="51.8" cy="377.903" r="9.375"/>
<circle fill-rule="evenodd" clip-rule="evenodd" fill="#8C8C8C" cx="58.979" cy="412.86" r="5.25"/>
<circle fill-rule="evenodd" clip-rule="evenodd" fill="#8C8C8C" cx="31.641" cy="408.843" r="5.621"/>
<circle fill-rule="evenodd" clip-rule="evenodd" fill="#8C8C8C" cx="25.546" cy="383.37" r="9.563"/>
<circle fill-rule="evenodd" clip-rule="evenodd" fill="#8C8C8C" cx="5.99" cy="413.22" r="5.989"/>
<circle fill-rule="evenodd" clip-rule="evenodd" fill="#8C8C8C" cx="38.349" cy="436.068" r="11.437"/>
<circle fill-rule="evenodd" clip-rule="evenodd" fill="#8C8C8C" cx="78.521" cy="431.451" r="6.494"/>
<circle fill-rule="evenodd" clip-rule="evenodd" fill="#8C8C8C" cx="116.078" cy="430.908" r="5.989"/>
</svg>
