<?xml version="1.0" encoding="utf-8"?>
<!-- Generator: Adobe Illustrator 17.0.0, SVG Export Plug-In . SVG Version: 6.00 Build 0)  -->
<!DOCTYPE svg PUBLIC "-//W3C//DTD SVG 1.1//EN" "http://www.w3.org/Graphics/SVG/1.1/DTD/svg11.dtd">
<svg version="1.1" id="Layer_1" xmlns="http://www.w3.org/2000/svg" xmlns:xlink="http://www.w3.org/1999/xlink" x="0px" y="0px"
	 width="106.2px" height="184.6px" viewBox="0 0 106.2 184.6" style="enable-background:new 0 0 106.2 184.6;" xml:space="preserve"
	>
<style type="text/css">
	.st0{fill:#1748FF;}
</style>
<g>
	<g>
		<path class="st0" d="M52.8,57.9c-6.5,0-11.7,5.3-11.7,11.9c0,6.6,5.3,11.9,11.7,11.9c6.5,0,11.7-5.3,11.7-11.9
			C64.5,63.2,59.3,57.9,52.8,57.9z M52.8,77.2c-4,0-7.3-3.3-7.3-7.4c0-4.1,3.3-7.4,7.3-7.4c4,0,7.3,3.3,7.3,7.4
			C60.1,73.9,56.9,77.2,52.8,77.2z M52.8,68.8c1.2,0,2.2-1,2.2-2.2c0-1.2-1-2.2-2.2-2.2c-3,0-5.4,2.4-5.4,5.4c0,3,2.4,5.4,5.4,5.4
			c1.2,0,2.2-1,2.2-2.2c0-1.2-1-2.2-2.2-2.2c-0.5,0-0.9-0.4-0.9-1C51.9,69.2,52.3,68.8,52.8,68.8z M83.3,124.9l-8.7-26.7v-12
			c0,0,0-0.1,0-0.1c0-0.1,0.1-0.1,0.1-0.2l-6.6-45C67.9,26.2,55.3,2.1,54.8,1.1c-0.8-1.5-3.1-1.5-3.9,0c-0.5,1-13.1,25.1-13.2,39.8
			l-6.1,45.1c0,0.1,0.1,0.1,0,0.1c0,0.1-0.1,0.1-0.1,0.2v12.1l-8.7,26.6C9.4,131,0,145.9,0,161.5c0,7.9,2.3,15.6,6.5,22.2
			c0.1,0.1,0.2,0.1,0.2,0.2c0.1,0.1,0.2,0.1,0.2,0.2c0.4,0.3,0.9,0.6,1.4,0.6c0,0,0,0,0,0c0,0,0,0,0.1,0c0.4,0,0.8-0.1,1.2-0.3
			c0.1,0,0.1-0.1,0.1-0.2c0.2-0.2,0.3-0.4,0.4-0.7c0.1-0.3,0.3-0.5,0.3-0.8c0-0.1,0.1-0.1,0.1-0.2c-0.1-7,1.9-13.8,5.7-19.7
			c3.3-5.2,10-10.7,13.1-12.2c0.9-0.4,1.6-0.6,2.2-0.7v0.7c0.1,2.4,1.4,6.4,5.4,7.9l-5.1,10.5c-0.3,0.7-0.3,1.5,0.1,2.2
			c0.4,0.7,1.1,1.1,1.9,1.1h15.8c0.7,5.3,1.2,9.3,1.4,10.6c0.1,1.1,1.1,1.9,2.2,1.9c1.1,0,2-0.8,2.2-1.9c0.2-1.3,0.7-5.4,1.4-10.6
			h15.8c0.8,0,1.5-0.4,1.9-1.1c0.4-0.7,0.4-1.5,0.1-2.2l-5.2-10.5c4-1.5,5.3-5.6,5.4-8.1v-0.6c0.6,0.1,1.4,0.2,2.3,0.7
			c3.1,1.5,9.9,7.1,13.1,12.2c3.7,5.9,5.7,12.7,5.6,19.7c0,0.1,0.1,0.1,0.1,0.2c0,0.3,0.2,0.5,0.3,0.8c0.1,0.3,0.2,0.5,0.4,0.7
			c0.1,0.1,0.1,0.2,0.1,0.2c0.4,0.2,0.8,0.3,1.2,0.3c0,0,0,0,0,0c0,0,0,0,0,0c0.5,0,1-0.2,1.4-0.6c0.1-0.1,0.2-0.1,0.2-0.2
			c0.1-0.1,0.2-0.1,0.2-0.2c4.3-6.6,6.5-14.3,6.5-22.2C106.2,145.9,96.8,131,83.3,124.9z M27.5,146.4c-3.7,1.8-11.1,7.9-14.9,13.9
			c-2.8,4.4-4.6,9.3-5.6,14.4c-1.6-4.2-2.5-8.6-2.5-13.1c0-13.7,8.2-26.8,20-32.3c4,4.5,6.5,10,7.1,16
			C30.3,145.3,29,145.6,27.5,146.4z M31.6,131.6c-1.2-2.1-2.6-4.1-4.3-5.9l4.3-13.2V131.6z M52.8,7.1c3.3,6.9,9.8,21.5,10.7,31.8
			H42.1C43,28.6,49.5,14,52.8,7.1z M41.8,43.4h22.2L69.9,84H36.3L41.8,43.4z M37.3,167.6l4.2-8.6h6.3c0.4,3,0.7,5.9,1.1,8.6H37.3z
			 M53.1,165.1c-2-16-4-32.2-4.1-34.3l0.3-1.8c0.6-1.5,2.1-2.5,3.7-2.5c1.6,0,3,1,3.7,2.4l0.4,1.9C57.1,133.1,55.1,149.1,53.1,165.1
			z M50.6,122.6l2.3-12.4l2.5,12.4c-0.8-0.2-1.5-0.5-2.4-0.5C52.2,122,51.4,122.3,50.6,122.6z M57.2,167.6c0.3-2.7,0.7-5.6,1.1-8.6
			h6.2l4.3,8.6H57.2z M70.2,150.2c0,0.4-0.3,4.3-4.3,4.3h-7c1.4-11.4,2.7-22.2,2.7-23.9c0-0.1-0.1-0.2-0.1-0.3c0,0,0-0.1,0-0.1
			L55,98.3c-0.2-1-1.1-1.8-2.2-1.8c-0.8,0.1-2,0.8-2.2,1.8l-6,31.9c0,0,0,0.1,0,0.1c0,0.1-0.1,0.2-0.1,0.3c0,1.7,1.3,12.5,2.7,23.9
			h-7c-3.9,0-4.3-3.6-4.3-4.2V88.5h34.2V150.2z M74.6,112.4l4.4,13.4c-1.7,1.8-3.2,3.8-4.4,6V112.4z M99.2,174.6
			c-0.9-5.1-2.8-10-5.6-14.4c-3.8-6-11.3-12.1-14.9-13.9c-1.5-0.7-2.9-1-4-1.1c0.5-6,3-11.5,7.1-16c11.8,5.5,20,18.5,20,32.3
			C101.8,166,100.8,170.4,99.2,174.6z"/>
	</g>
</g>
</svg>
